<?xml version="1.0" encoding="UTF-8" standalone="no"?>
<!-- Created with Inkscape (http://www.inkscape.org/) -->

<svg
   width="123.274"
   height="51.125"
   viewBox="0 0 32.616246 13.526823"
   version="1.1"
   id="svg1"
   inkscape:version="1.4.2 (ebf0e940d0, 2025-05-08)"
   sodipodi:docname="aurela_logo.svg"
   xmlns:inkscape="http://www.inkscape.org/namespaces/inkscape"
   xmlns:sodipodi="http://sodipodi.sourceforge.net/DTD/sodipodi-0.dtd"
   xmlns:xlink="http://www.w3.org/1999/xlink"
   xmlns="http://www.w3.org/2000/svg"
   xmlns:svg="http://www.w3.org/2000/svg">
  <sodipodi:namedview
     id="namedview1"
     pagecolor="#ffffff"
     bordercolor="#000000"
     borderopacity="0.25"
     inkscape:showpageshadow="2"
     inkscape:pageopacity="0.0"
     inkscape:pagecheckerboard="0"
     inkscape:deskcolor="#d1d1d1"
     inkscape:document-units="px"
     inkscape:zoom="8.042923"
     inkscape:cx="58.063468"
     inkscape:cy="35.807877"
     inkscape:window-width="2560"
     inkscape:window-height="1012"
     inkscape:window-x="0"
     inkscape:window-y="0"
     inkscape:window-maximized="1"
     inkscape:current-layer="svg1" />
  <defs
     id="defs1">
    <linearGradient
       id="linearGradient1"
       inkscape:collect="always">
      <stop
         style="stop-color:#153d40;stop-opacity:1;"
         offset="0"
         id="stop1" />
      <stop
         style="stop-color:#0a414a;stop-opacity:0.49803922;"
         offset="0.59932518"
         id="stop3" />
      <stop
         style="stop-color:#004655;stop-opacity:0;"
         offset="1"
         id="stop2" />
    </linearGradient>
    <linearGradient
       id="linearGradient10"
       inkscape:collect="always">
      <stop
         style="stop-color:#24a19c;stop-opacity:1;"
         offset="0"
         id="stop10" />
      <stop
         style="stop-color:#24a19c;stop-opacity:0;"
         offset="1"
         id="stop11" />
    </linearGradient>
    <linearGradient
       id="linearGradient6"
       inkscape:collect="always">
      <stop
         style="stop-color:#24a19c;stop-opacity:1;"
         offset="0"
         id="stop6" />
      <stop
         style="stop-color:#24a19c;stop-opacity:0;"
         offset="1"
         id="stop7" />
    </linearGradient>
    <linearGradient
       inkscape:collect="always"
       xlink:href="#linearGradient6"
       id="linearGradient7"
       x1="21.243385"
       y1="10.039702"
       x2="22.727201"
       y2="8.8301153"
       gradientUnits="userSpaceOnUse"
       gradientTransform="translate(-1.6131646,-1.8970625)" />
    <linearGradient
       inkscape:collect="always"
       xlink:href="#linearGradient10"
       id="linearGradient11"
       x1="31.79038"
       y1="8.369524"
       x2="30.296757"
       y2="8.9161634"
       gradientUnits="userSpaceOnUse"
       gradientTransform="translate(-1.6131646,-1.8970625)" />
    <linearGradient
       inkscape:collect="always"
       xlink:href="#linearGradient1"
       id="linearGradient2"
       x1="16.308123"
       y1="-0.054109655"
       x2="16.308123"
       y2="13.580932"
       gradientUnits="userSpaceOnUse" />
  </defs>
  <rect
     style="fill:url(#linearGradient2);stroke-width:0.264583"
     id="rect1"
     width="32.616245"
     height="13.526823"
     x="0"
     y="0" />
  <g
     inkscape:label="图层 1"
     inkscape:groupmode="layer"
     id="layer1"
     style="display:inline;opacity:0.85">
    <path
       style="font-size:11.2889px;font-family:'Nova Cut';-inkscape-font-specification:'Nova Cut';display:inline;fill:#ffffff;fill-opacity:1;stroke-width:0.264583"
       d="m 29.00572,9.2164305 c 0.385851,0 0.672483,-0.112081 0.859896,-0.336242 0.216812,-0.260909 0.325218,-0.586126 0.325218,-0.9756519 0,-0.4483222 -0.11943,-0.7790517 -0.358291,-0.9921885 C 29.604708,6.7102356 29.3291,6.6091794 29.00572,6.6091794 c -0.385851,0 -0.672484,0.1120805 -0.859897,0.3362416 -0.216811,0.2609089 -0.325217,0.5806141 -0.325217,0.9591156 0,0.4593469 0.11943,0.7955879 0.35829,1.0087249 0.231511,0.202113 0.507119,0.303169 0.826824,0.303169 z m 0,0.8709215 C 28.322212,10.03958 27.787533,9.8631905 27.401682,9.5581845 26.94601,9.1980565 26.718174,8.6523525 26.718174,7.921073 V 7.5076612 L 29.00572,5.7382583 c 0.463021,0.033073 0.858059,0.1249426 1.185114,0.2756079 V 5.7492826 c 0,-0.4446474 -0.11943,-0.7753769 -0.358291,-0.9921885 C 29.604708,4.5549816 29.3291,4.4539254 29.00572,4.4539254 c -0.360128,0 -0.64676,0.1120806 -0.859897,0.3362417 L 27.842654,4.4814862 29.00572,3.5830044 c 0.694532,0.047772 1.229211,0.2241611 1.604038,0.5291672 0.455671,0.371152 0.683507,0.9168557 0.683507,1.637111 v 3.8419749 l -1.04731,0.4960945 h -0.05512 V 9.1668205 Z"
       id="path5"
       sodipodi:nodetypes="scscscscsccscccscsccccsccccc" />
    <path
       style="font-size:11.2889px;font-family:'Nova Cut';-inkscape-font-specification:'Nova Cut';fill:#ffffff;fill-opacity:1;stroke-width:0.264583"
       d="M 24.491262,10.087352 V 1.8191137 l 1.04731,-0.4960942 h 0.05512 v 8.268238 l -1.04731,0.4960945 z"
       id="path4"
       sodipodi:nodetypes="ccccccc" />
    <path
       style="font-size:11.2889px;font-family:'Nova Cut';-inkscape-font-specification:'Nova Cut';fill:#ffffff;fill-opacity:1;stroke-width:0.264583"
       d="M 20.803628,10.087352 C 20.109096,10.03958 19.574417,9.8631905 19.19959,9.5581845 18.743918,9.1833575 18.516082,8.6376535 18.516082,7.921073 V 5.3524072 l 2.287546,-1.7694028 c 0.694532,0.047772 1.229211,0.2241611 1.604038,0.5291672 0.455672,0.371152 0.683579,0.9169688 0.683579,1.6372241 l -3.390106,2.7394958 c 0.06615,0.183739 0.158073,0.325151 0.275665,0.42437 0.238861,0.202113 0.510794,0.303169 0.8158,0.303169 0.319705,0 0.610012,-0.112081 0.870921,-0.336242 0.216811,-0.187413 0.325217,-0.507118 0.325217,-0.9591155 l 1.04731,-0.4960942 h 0.05512 V 8.3179485 Z M 19.618589,7.6784297 21.988726,5.7546874 c 0,-0.4630213 -0.121251,-0.7954808 -0.363786,-0.9975933 -0.238861,-0.2021125 -0.512631,-0.3031687 -0.821312,-0.3031687 -0.356453,0 -0.643085,0.1120806 -0.859897,0.3362417 -0.216811,0.2241611 -0.325142,0.5437578 -0.325142,0.9590071 z"
       id="path3"
       sodipodi:nodetypes="ccsccccccscccccccccsssc" />
    <path
       style="font-size:11.2889px;font-family:'Nova Cut';-inkscape-font-specification:'Nova Cut';fill:#ffffff;fill-opacity:1;stroke-width:0.264583"
       d="M 12.838559,10.087352 V 5.3524072 l 2.287545,-1.7694028 c 0.694532,0.047772 1.229211,0.2241611 1.604038,0.5291672 0.455672,0.371152 0.683508,0.9168557 0.683508,1.637111 L 16.36634,6.2453769 H 16.31122 V 5.7492826 c 0,-0.4593465 -0.121267,-0.790076 -0.363802,-0.9921885 -0.23886,-0.2021125 -0.514468,-0.3031687 -0.826824,-0.3031687 -0.319705,0 -0.6045,0.1120806 -0.854384,0.3362417 -0.216812,0.1947629 -0.325218,0.5144681 -0.325218,0.9591155 v 3.8419749 l -1.04731,0.4960945 z"
       id="path2"
       sodipodi:nodetypes="cccccccscscsccc" />
    <path
       style="font-size:11.2889px;font-family:'Nova Cut';-inkscape-font-specification:'Nova Cut';fill:#ffffff;fill-opacity:1;stroke-width:0.264583"
       d="M 8.8973664,10.087352 C 8.2028347,10.03958 7.6681557,9.8631905 7.2933287,9.5581845 6.8376567,9.1870325 6.6098207,8.6413285 6.6098207,7.921073 V 5.137432 l 1.04731,-0.4960943 h 0.05512 V 7.921073 c 0,0.4593465 0.11943,0.7900755 0.35829,0.9921885 0.23886,0.202113 0.5144677,0.303169 0.8268237,0.303169 0.345428,0 0.63206,-0.112081 0.859896,-0.336242 0.216812,-0.213137 0.3252176,-0.532842 0.3252176,-0.9591155 V 4.0790987 l 1.04731,-0.4960943 h 0.05512 v 4.7349441 z"
       id="path1"
       sodipodi:nodetypes="ccscccssscsccccc" />
    <path
       style="font-size:11.2889px;font-family:'Nova Cut';-inkscape-font-specification:'Nova Cut';fill:#ffffff;fill-opacity:1;stroke-width:0.264583"
       d="M 8.9021294,10.087335 C 8.2075972,10.039563 7.6729182,9.8631735 7.2980912,9.5581675 6.8424192,9.1870155 6.6145832,8.6413115 6.6145832,7.921056 V 5.137415 l 1.04731,-0.4960943 h 0.05512 V 7.921056 c 0,0.4593465 0.11943,0.7900755 0.35829,0.9921885 0.23886,0.202113 0.5144682,0.303169 0.8268242,0.303169 0.345428,0 0.63206,-0.112081 0.859896,-0.336242 0.216812,-0.213137 0.3252176,-0.532842 0.3252176,-0.9591155 V 4.0790817 l 1.04731,-0.4960943 h 0.05512 v 4.7349441 z"
       id="path1-0"
       sodipodi:nodetypes="ccscccssscsccccc" />
    <path
       style="font-size:11.2889px;font-family:'Nova Cut';-inkscape-font-specification:'Nova Cut';fill:#ffffff;fill-opacity:1;stroke-width:0.264583"
       d="m 2.1450438,3.4727612 2.78364,-2.1497417 c 0.8378481,0 1.5176809,0.266421 2.0394986,0.7992629 0.4960943,0.5071186 0.7441414,1.1593907 0.7441414,1.9568163 V 6.9343992 L 6.6650137,7.4415182 H 6.6098921 V 4.0790987 c 0,-0.4924195 -0.1322918,-0.8911323 -0.3968754,-1.1961384 C 5.885962,2.5044588 5.457851,2.315208 4.9286838,2.315208 4.3884923,2.315208 3.9603813,2.5044588 3.6443509,2.8829603 3.3797673,3.1989907 3.2474755,3.5977035 3.2474755,4.0790987 v 7.6288263 l -1.0473101,0.496094 h -0.055122 z"
       id="text1"
       sodipodi:nodetypes="cccscccscscscccc" />
  </g>
  <g
     inkscape:groupmode="layer"
     id="layer2"
     inkscape:label="图层 2">
    <path
       d="m 1.3229166,6.9895871 v -0.055122 l 0.314193,-0.661459 4.2057768,4e-7 v 0.055122 l -0.314193,0.661459 z"
       style="font-size:11.2889px;font-family:'Nova Cut';-inkscape-font-specification:'Nova Cut';opacity:1;fill:#24a19c;fill-opacity:1;stroke-width:0.264583"
       id="path1-9"
       sodipodi:nodetypes="ccccccc" />
    <path
       d="m 17.413727,6.2587186 -1.04731,0.4960943 h -0.05512 v 0.8532807"
       style="font-size:11.2889px;font-family:'Nova Cut';-inkscape-font-specification:'Nova Cut';opacity:1;fill:#24a19c;fill-opacity:1;stroke-width:0.264583"
       id="path1-8"
       sodipodi:nodetypes="cccc" />
    <path
       d="M 25.593589,1.3229166 24.491155,3.0220707 V 1.8190106 l 1.04731,-0.496094 z"
       style="font-size:11.2889px;font-family:'Nova Cut';-inkscape-font-specification:'Nova Cut';display:inline;opacity:1;fill:#24a19c;fill-opacity:1;stroke-width:0.264583"
       id="path1-2"
       sodipodi:nodetypes="ccccc" />
    <path
       d="m 31.293239,9.5911905 -1.04731,0.4960945 h -0.05512 V 9.1667535 l 1.102519,-0.861483 z"
       style="font-size:11.2889px;font-family:'Nova Cut';-inkscape-font-specification:'Nova Cut';display:inline;opacity:1;fill:#24a19c;fill-opacity:1;stroke-width:0.264583"
       id="path1-6"
       sodipodi:nodetypes="cccccc" />
    <path
       style="display:inline;opacity:0.5;fill:url(#linearGradient7);stroke-width:0.264583"
       d="m 19.618589,7.6784727 c 0,0.3691779 0.08255,0.8104188 0.08255,0.8104188 l 3.390106,-2.7394958 -1.102519,0.00529 z"
       id="path6"
       sodipodi:nodetypes="ccccc" />
    <path
       style="font-size:11.2889px;font-family:'Nova Cut';-inkscape-font-specification:'Nova Cut';display:inline;opacity:0.15;fill:url(#linearGradient11);fill-opacity:1;stroke-width:0.264583"
       d="m 30.195576,7.9045196 c 0,-0.4483222 -0.11943,-0.7790517 -0.358291,-0.9921885 -0.227835,-0.2021125 -0.503443,-0.3031687 -0.826823,-0.3031687 -0.385851,0 -0.672484,0.1120805 -0.859897,0.3362416 -0.216811,0.2609089 -0.325217,0.5806141 -0.325217,0.9591156 z m -3.47266,-9.27e-5 V 7.5076442 l 2.287546,-1.7694029 c 0.463021,0.033073 0.858059,0.1249426 1.185114,0.2756079 l -4e-6,1.8905777 h -2.689277 z"
       id="path5-1"
       sodipodi:nodetypes="ccscccccccccc" />
  </g>
</svg>
